<svg xmlns="http://www.w3.org/2000/svg" xmlns:svg="http://www.w3.org/2000/svg" id="svg8" width="20" height="20" preserveAspectRatio="xMidYMid meet" version="1.1" viewBox="0 0 20 20" style="-ms-transform:rotate(360deg);-webkit-transform:rotate(360deg);transform:rotate(360deg)"><metadata id="metadata14"/><g id="g4" fill="none"><path style="fill:#ff7b26;stroke-width:2;stroke-miterlimit:4;stroke-dasharray:none;fill-opacity:1" id="path2" fill="#626262" d="m 17.897,5.5 c 0,-1.3807119 -2.019288,-3.4 -3.4,-3.4 h -9 c -1.380712,0 -3.4,2.0192881 -3.4,3.4 v 9 c 0,1.380712 2.019288,3.4 3.4,3.4 h 9 c 1.380712,0 3.4,-2.019288 3.4,-3.4 z M 3.997,8.9 V 5.5 C 3.997,4.6715729 4.668573,4 5.497,4 h 6.1 v 4.1 c 0,0.2761424 -0.523858,0.8 -0.8,0.8 z m 9.2,-4.9 h 1.3 c 0.828427,0 1.5,0.6715729 1.5,1.5 v 9 c 0,0.828427 -0.671573,1.5 -1.5,1.5 h -9 c -0.828427,0 -1.5,-0.671573 -1.5,-1.5 v -4 h 7.2 c 0.828427,0 1.981177,-1.2717868 2,-2.1 z"/></g></svg>